<?xml version="1.0" standalone="no"?>
<!DOCTYPE svg PUBLIC "-//W3C//DTD SVG 20010904//EN"
 "http://www.w3.org/TR/2001/REC-SVG-20010904/DTD/svg10.dtd">
<svg version="1.0" xmlns="http://www.w3.org/2000/svg"
 width="351.000000pt" height="351.000000pt" viewBox="0 0 351.000000 351.000000"
 preserveAspectRatio="xMidYMid meet">
<metadata>
Created by potrace 1.11, written by Peter Selinger 2001-2013
</metadata>
<g transform="translate(0.000000,351.000000) scale(0.100000,-0.100000)"
fill="#000000" stroke="none">
<path d="M1618 3505 c-2 -2 -32 -6 -68 -9 -365 -38 -751 -222 -1019 -486 -185
-183 -327 -396 -406 -610 -15 -41 -31 -84 -36 -95 -25 -62 -65 -243 -76 -350
-14 -129 -8 -362 12 -485 48 -292 184 -591 375 -825 83 -101 232 -240 341
-317 77 -55 279 -166 364 -200 27 -11 189 -65 195 -65 3 0 39 -8 80 -17 194
-43 485 -52 641 -20 13 2 40 7 59 10 329 52 744 283 962 535 26 30 59 68 73
84 54 63 163 234 212 335 74 152 124 308 157 495 19 104 26 327 14 425 -15
127 -20 156 -34 219 -9 36 -17 73 -19 81 -30 140 -158 412 -263 560 -79 112
-275 313 -384 393 -42 31 -81 57 -87 57 -6 0 -11 5 -11 10 0 6 -5 10 -12 10
-6 0 -19 6 -27 14 -29 26 -234 123 -326 154 -136 46 -235 70 -370 88 -41 6
-342 13 -347 9z"/>
</g>
</svg>
